<svg xmlns="http://www.w3.org/2000/svg" viewBox="0 0 128 128">
  <rect width="128" height="128" rx="24" fill="#0d1117"/>
  <path fill="#c9d1d9" d="M64 18c-25.4 0-46 20.6-46 46 0 20.3 13.2 37.6 31.5 43.7 2.3.4 3.1-1 3.1-2.2v-7.7c-12.8 2.8-15.5-6.2-15.5-6.2-2.1-5.3-5.2-6.7-5.2-6.7-4.2-2.9.3-2.8.3-2.8 4.6.3 7 4.7 7 4.7 4.1 7.1 10.9 5 13.5 3.9.4-3 1.6-5 2.9-6.1-10.2-1.2-20.9-5.1-20.9-22.6 0-5 1.8-9.1 4.7-12.3-.5-1.2-2-5.8.4-12.1 0 0 3.8-1.2 12.4 4.7 3.6-1 7.5-1.5 11.3-1.5 3.8 0 7.7.5 11.3 1.5 8.6-5.9 12.4-4.7 12.4-4.7 2.5 6.3.9 11 .4 12.1 2.9 3.2 4.7 7.3 4.7 12.3 0 17.6-10.7 21.4-20.9 22.6 1.6 1.4 3.1 4.2 3.1 8.5v12.6c0 1.2.8 2.6 3.1 2.2C96.8 101.6 110 84.3 110 64c0-25.4-20.6-46-46-46z"/>
  <text x="64" y="120" text-anchor="middle" font-family="system-ui, sans-serif" font-weight="700" font-size="18" fill="#58a6ff">RU</text>
</svg>
